HIERARCHY
ROOT root
{
	OFFSET 0.000000 0.000000 0.000000
	CHANNELS 6 Xposition Yposition Zposition Zrotation Yrotation Xrotation
	JOINT lhip
	{
		OFFSET 0.058581 -0.082280 -0.017664
		CHANNELS 3 Zrotation Yrotation Xrotation
		JOINT lknee
		{
			OFFSET 0.043451 -0.386469 0.008037
			CHANNELS 3 Zrotation Yrotation Xrotation
			JOINT lankle
			{
				OFFSET -0.014790 -0.426874 -0.037428
				CHANNELS 3 Zrotation Yrotation Xrotation
				JOINT ltoe
				{
					OFFSET 0.041054 -0.060286 0.122042
					CHANNELS 3 Zrotation Yrotation Xrotation
					End Site
					{
						OFFSET 0.000000 0.000000 0.000000
					}
				}
			}
		}
	}
	JOINT rhip
	{
		OFFSET -0.060310 -0.090513 -0.013543
		CHANNELS 3 Zrotation Yrotation Xrotation
		JOINT rknee
		{
			OFFSET -0.043257 -0.383688 -0.004843
			CHANNELS 3 Zrotation Yrotation Xrotation
			JOINT rankle
			{
				OFFSET 0.019056 -0.420046 -0.034562
				CHANNELS 3 Zrotation Yrotation Xrotation
				JOINT rtoe
				{
					OFFSET -0.034840 -0.062106 0.130323
					CHANNELS 3 Zrotation Yrotation Xrotation
					End Site
					{
						OFFSET 0.000000 0.000000 0.000000
					}
				}
			}
		}
	}
	JOINT lowerback
	{
		OFFSET 0.004439 0.124404 -0.038385
		CHANNELS 3 Zrotation Yrotation Xrotation
		JOINT upperback
		{
			OFFSET 0.004488 0.137956 0.026820
			CHANNELS 3 Zrotation Yrotation Xrotation
			JOINT chest
			{
				OFFSET -0.002265 0.056032 0.002855
				CHANNELS 3 Zrotation Yrotation Xrotation
				JOINT lowerneck
				{
					OFFSET -0.013390 0.211636 -0.033468
					CHANNELS 3 Zrotation Yrotation Xrotation
					JOINT upperneck
					{
						OFFSET 0.010113 0.088937 0.050410
						CHANNELS 3 Zrotation Yrotation Xrotation
						End Site
						{
							OFFSET 0.000000 0.000000 0.000000
						}
					}
				}
				JOINT lclavicle
				{
					OFFSET 0.071702 0.114000 -0.018898
					CHANNELS 3 Zrotation Yrotation Xrotation
					JOINT lshoulder
					{
						OFFSET 0.122921 0.045205 -0.019046
						CHANNELS 3 Zrotation Yrotation Xrotation
						JOINT lelbow
						{
							OFFSET 0.255332 -0.015649 -0.022946
							CHANNELS 3 Zrotation Yrotation Xrotation
							JOINT lwrist
							{
								OFFSET 0.265709 0.012698 -0.007375
								CHANNELS 3 Zrotation Yrotation Xrotation
								End Site
								{
									OFFSET 0.000000 0.000000 0.000000
								}
							}
						}
					}
				}
				JOINT rclavicle
				{
					OFFSET -0.082954 0.112472 -0.023707
					CHANNELS 3 Zrotation Yrotation Xrotation
					JOINT rshoulder
					{
						OFFSET -0.113228 0.046853 -0.008472
						CHANNELS 3 Zrotation Yrotation Xrotation
						JOINT relbow
						{
							OFFSET -0.260127 -0.014369 -0.031269
							CHANNELS 3 Zrotation Yrotation Xrotation
							JOINT rwrist
							{
								OFFSET -0.269108 0.006794 -0.006027
								CHANNELS 3 Zrotation Yrotation Xrotation
								End Site
								{
									OFFSET 0.000000 0.000000 0.000000
								}
							}
						}
					}
				}
			}
		}
	}
}
MOTION
Frames: 10
Frame Time: 0.033333
0.043194 -1.721815 0.973197 -168.090907 1.415198 91.263659 7.002745 2.293478 -10.440253 -5.068052 -1.154723 15.648425 1.889811 0.565886 -13.960716 0.000000 -0.000000 0.000000 -3.203157 -10.236601 -1.824672 1.292333 -10.521243 9.574119 -3.315326 -3.569191 -13.615296 0.000000 -0.000000 0.000000 -2.704449 4.841684 9.977607 0.947401 -1.003250 11.463488 3.431778 0.827644 0.237366 -3.153607 -3.151983 -2.327135 6.134817 -0.906779 -7.066610 -23.759277 1.547778 4.318983 -58.152234 -1.823160 14.853549 -162.401688 -86.450002 -178.737669 12.850597 -3.400625 -22.470162 22.629549 6.368530 6.999578 58.408772 5.177122 18.178132 53.131425 78.046053 58.323140 7.872763 12.521005 -40.694853 
0.040358 -1.722482 0.972852 -167.427846 1.370588 91.522041 6.792930 1.668131 -10.968789 -5.799413 -2.997137 15.944652 2.089439 2.833265 -13.746903 0.000000 -0.000000 0.000000 -3.360305 -9.974266 -1.715728 1.726013 -9.787490 9.038750 -2.560635 -5.574324 -13.495379 0.000000 -0.000000 0.000000 -2.697344 4.641983 10.626385 0.343806 -0.643768 10.762191 3.494934 0.933410 1.286600 -2.419526 -3.843140 -3.553570 6.279414 -1.454827 -6.341826 -23.498833 1.408839 4.193271 -56.766851 -1.271818 15.437839 -161.864648 -87.294160 -174.535209 14.339994 -1.486149 -22.531379 22.576629 7.167263 6.853668 59.227356 5.571771 18.136141 45.828288 77.378289 52.878739 9.054592 12.614635 -40.659448 
0.037311 -1.722658 0.972882 -166.753121 1.371442 91.996973 6.720643 1.159280 -11.659158 -6.268775 -3.605438 16.266172 2.836801 3.177647 -14.103243 0.000000 -0.000000 0.000000 -3.432476 -9.904039 -2.002036 1.882716 -10.265677 8.895141 -2.489623 -6.071672 -13.361175 0.000000 -0.000000 0.000000 -2.956270 4.979556 10.909634 0.370968 -0.632650 10.709362 3.541293 1.130057 1.306752 -2.447180 -3.642480 -3.193082 6.362232 -2.030177 -5.960087 -23.186066 0.946167 4.412662 -56.637645 -1.797397 14.713813 -168.824675 -89.261085 -167.369808 13.442313 -2.142163 -21.537407 22.604823 7.881299 7.122705 60.120746 6.180567 18.137375 38.613179 76.491685 46.396589 8.974858 12.306762 -39.271152 
0.032707 -1.723194 0.972208 -165.773127 1.219257 92.467714 6.303222 0.170473 -12.442377 -6.445634 -4.024278 16.708403 3.315642 3.720887 -14.340209 0.000000 -0.000000 0.000000 -3.777728 -9.576571 -2.635781 1.891630 -11.003109 9.543143 -2.267200 -6.544584 -14.055967 0.000000 -0.000000 0.000000 -3.272889 5.360214 11.474443 0.386836 -0.681452 10.677824 3.673905 1.277781 1.547373 -2.148866 -3.783688 -3.434759 6.464659 -3.336698 -6.058766 -22.637360 -0.008561 4.362934 -57.318165 -2.649661 14.727998 30.202687 -86.840150 -6.941303 11.272742 -1.872269 -21.610246 22.547141 9.084345 7.098581 61.405420 7.180298 18.585662 28.731531 74.602398 36.668267 9.516214 11.692956 -38.119346 
0.029330 -1.723975 0.973141 -164.861730 1.573738 92.080857 6.234231 -0.092017 -12.374787 -6.282594 -4.866569 17.366508 3.182206 3.464718 -14.857705 0.000000 -0.000000 0.000000 -3.662977 -10.492289 -2.589292 1.877518 -11.555287 10.500882 -2.427081 -6.222425 -14.535704 0.000000 -0.000000 0.000000 -2.599514 5.424705 13.136456 0.427564 -0.861812 10.315630 3.625622 1.348718 1.453215 -2.057475 -4.204512 -4.018593 6.695292 -4.213605 -6.123357 -22.704205 -0.685248 4.132833 -57.625398 -2.787794 14.476458 24.077469 -84.577376 -1.178598 10.895487 -2.046788 -21.892920 22.534220 9.889293 6.763987 61.977641 7.646158 18.188543 25.329482 72.881546 33.252722 9.989856 11.724441 -36.947981 
0.025711 -1.725520 0.972304 -164.247121 1.484285 92.532871 5.923790 -0.077055 -13.429456 -6.421657 -4.505244 18.135623 3.209590 3.095408 -14.954390 0.000000 -0.000000 0.000000 -4.052416 -10.299311 -4.090624 1.792235 -12.490921 12.554141 -2.430407 -6.145471 -15.867967 0.000000 -0.000000 0.000000 -2.786155 5.633489 14.117937 0.321553 -0.642171 9.964722 3.792273 1.509349 1.310751 -1.764222 -4.332952 -3.884618 6.872452 -4.928486 -6.517994 -22.580696 -1.295712 4.264013 -58.398244 -3.259027 14.274002 25.710910 -81.995019 -3.384639 10.970975 -2.034514 -22.014141 22.599408 10.992979 7.108257 63.204984 8.698430 18.319934 21.042124 70.843571 27.245477 8.113357 11.443720 -38.048539 
0.022473 -1.726656 0.970720 -163.857688 1.383751 92.943045 5.673952 -0.230364 -14.232368 -6.573140 -4.280690 18.661025 3.505865 2.801136 -15.301899 0.000000 -0.000000 0.000000 -4.566010 -10.205232 -6.024565 1.783318 -13.547209 15.360162 -2.691690 -6.028983 -17.030152 0.000000 -0.000000 0.000000 -3.149219 5.917983 15.047014 0.317426 -0.319612 9.681546 3.892027 1.824824 1.194097 -1.122225 -4.602753 -4.042321 7.338727 -6.059284 -7.048274 -22.707452 -1.502496 4.042639 -59.387992 -4.265108 13.839594 26.972968 -79.158447 -4.893649 10.061071 -2.110637 -22.327655 23.038103 11.856056 7.260263 64.052743 10.197927 18.357249 16.036174 68.842024 22.442283 8.139596 11.610863 -38.385223 
0.019569 -1.727955 0.968710 -163.489193 1.179647 93.341449 5.586468 -0.378208 -14.947594 -6.796138 -3.045366 19.081127 3.082120 2.290452 -15.584021 0.000000 -0.000000 0.000000 -5.300709 -10.183490 -8.115879 1.811425 -15.233392 18.375183 -2.748174 -6.090785 -18.349583 0.000000 -0.000000 0.000000 -3.492419 6.413714 15.953881 0.374618 0.063010 9.354551 3.988310 2.011331 1.235553 -0.523413 -4.809956 -4.510678 7.422715 -7.760445 -7.194129 -22.660469 -1.958987 3.817441 -61.131631 -6.093411 13.615036 28.270601 -74.878255 -6.837053 9.805510 -3.187274 -23.007076 23.402282 12.331501 7.050883 65.215650 11.793687 18.488709 11.306396 66.368556 17.553956 7.914949 11.527776 -38.660857 
0.017975 -1.729339 0.967131 -163.539741 1.012613 93.472787 5.603399 -0.270460 -15.573915 -7.113805 -1.960894 20.101314 3.323915 1.626128 -16.220545 0.000000 -0.000000 0.000000 -5.924125 -9.986680 -10.020397 1.492378 -15.672772 21.729145 -2.963258 -5.589812 -18.811905 0.000000 -0.000000 0.000000 -3.721940 7.022739 17.387935 0.351828 0.476824 9.009580 4.006341 2.372472 0.771851 -0.283469 -5.278403 -4.398242 8.016915 -9.292758 -7.255503 -22.388993 -3.468596 3.746910 -63.474711 -7.793226 13.578472 30.452063 -69.304073 -9.010992 8.730574 -3.668352 -23.847736 23.644999 13.450092 7.296052 67.065983 13.151635 17.744713 5.055231 62.943279 11.489183 8.887540 11.578967 -38.860618 
0.017188 -1.731410 0.964775 -163.770844 0.792926 93.944945 5.548167 0.147293 -16.719825 -7.418053 -0.783521 21.246069 3.575174 1.036471 -16.692875 0.000000 -0.000000 0.000000 -6.494911 -10.073477 -12.263435 1.396339 -16.132126 24.696085 -3.213007 -5.188590 -19.990418 0.000000 -0.000000 0.000000 -4.061079 7.797716 18.721283 0.288331 0.880752 8.655171 3.927754 2.955523 0.489187 0.112535 -5.365052 -4.814586 8.685315 -11.246547 -7.518891 -22.590671 -5.301439 3.012626 -64.711355 -10.663543 13.760758 26.388395 -62.664477 -5.750271 7.974049 -3.898692 -24.731037 24.580028 14.554937 7.540326 68.684338 15.037197 16.959698 -3.020369 58.237965 3.686798 9.183316 10.937267 -37.137632 
